<?xml version="1.0" standalone="no"?>
<!DOCTYPE svg PUBLIC "-//W3C//DTD SVG 20010904//EN"
 "http://www.w3.org/TR/2001/REC-SVG-20010904/DTD/svg10.dtd">
<svg version="1.0" xmlns="http://www.w3.org/2000/svg"
 width="192.000000pt" height="192.000000pt" viewBox="0 0 192.000000 192.000000"
 preserveAspectRatio="xMidYMid meet">

<g transform="translate(0.000000,192.000000) scale(0.100000,-0.100000)"
fill="#000000" stroke="none">
<path d="M138 1904 c-26 -8 -60 -28 -77 -45 -62 -62 -62 -54 -59 -920 l3 -785
25 -49 c20 -38 37 -55 75 -75 l49 -25 806 0 806 0 49 25 c38 20 55 37 75 75
l25 49 0 806 0 806 -25 49 c-20 38 -37 55 -75 75 l-49 25 -791 2 c-667 2 -797
0 -837 -13z m637 -308 c60 -28 118 -85 148 -146 21 -44 22 -57 25 -401 3 -338
2 -358 -18 -411 -11 -30 -36 -73 -55 -95 -19 -23 -35 -44 -35 -47 0 -4 25 -43
55 -89 30 -45 55 -88 55 -95 0 -10 -26 -12 -112 -10 l-112 3 -35 67 c-35 64
-38 67 -81 73 -93 14 -172 74 -222 168 -23 41 -23 47 -23 417 0 363 1 376 22
420 50 106 151 170 268 170 52 0 83 -6 120 -24z m649 -23 c3 -21 10 -76 16
-123 5 -47 16 -141 25 -210 15 -120 26 -217 59 -490 9 -69 20 -159 25 -200 17
-121 28 -110 -108 -110 l-119 0 -8 102 -9 103 -36 3 c-36 3 -36 3 -43 -44 -3
-26 -6 -73 -6 -105 l0 -59 -126 0 -126 0 6 27 c3 16 10 71 16 123 6 52 14 127
20 165 5 39 17 129 25 200 55 461 75 626 81 643 2 9 42 12 153 12 l149 0 6
-37z"/>
<path d="M627 1374 c-4 -4 -7 -161 -7 -349 0 -300 2 -344 16 -356 11 -9 20
-10 32 -2 15 9 17 44 17 359 l0 349 -25 3 c-14 2 -29 0 -33 -4z"/>
<path d="M1256 1163 c-3 -59 -9 -141 -12 -180 l-5 -73 27 0 27 0 -7 173 c-4
94 -11 176 -16 180 -4 5 -11 -40 -14 -100z"/>
</g>
</svg>
